<!DOCTYPE svg PUBLIC "-//W3C//DTD SVG 1.1//EN" "http://www.w3.org/Graphics/SVG/1.1/DTD/svg11.dtd">
<!-- Uploaded to: SVG Repo, www.svgrepo.com, Transformed by: SVG Repo Mixer Tools -->
<svg version="1.1" id="Uploaded to svgrepo.com" xmlns="http://www.w3.org/2000/svg" xmlns:xlink="http://www.w3.org/1999/xlink" width="800px" height="800px" viewBox="0 0 32 32" xml:space="preserve" fill="#000000" stroke="#000000">
<g id="SVGRepo_bgCarrier" stroke-width="0"/>
<g id="SVGRepo_tracerCarrier" stroke-linecap="round" stroke-linejoin="round"/>
<g id="SVGRepo_iconCarrier"> <style type="text/css"> .stone_een{fill:#ffffff;} .st0{fill:#ffffff;} </style> <path class="stone_een" d="M16,3C8.268,3,2,9.268,2,17c0,3.054,0.981,5.876,2.643,8.174c1.065,1.473,3.208,1.768,4.534,0.526 C10.962,24.026,13.359,23,16,23s5.038,1.026,6.823,2.7c1.326,1.243,3.469,0.947,4.534-0.526C29.019,22.876,30,20.054,30,17 C30,9.268,23.732,3,16,3z M5,18c-0.552,0-1-0.448-1-1c0-0.552,0.448-1,1-1s1,0.448,1,1C6,17.552,5.552,18,5,18z M16,5 c0.552,0,1,0.448,1,1c0,0.552-0.448,1-1,1s-1-0.448-1-1C15,5.448,15.448,5,16,5z M8.929,9.929c-0.391,0.391-1.024,0.391-1.414,0 c-0.391-0.391-0.391-1.024,0-1.414s1.024-0.391,1.414,0C9.319,8.905,9.319,9.538,8.929,9.929z M23.354,13.354l-6.403,6.403 C16.971,19.836,17,19.914,17,20c0,0.552-0.448,1-1,1s-1-0.448-1-1c0-0.552,0.448-1,1-1c0.086,0,0.164,0.029,0.244,0.049l6.403-6.403 c0.195-0.195,0.512-0.195,0.707,0S23.549,13.158,23.354,13.354z M24.485,9.929c-0.391,0.391-1.024,0.391-1.414,0 c-0.391-0.391-0.391-1.024,0-1.414c0.391-0.391,1.024-0.391,1.414,0S24.876,9.538,24.485,9.929z M27,18c-0.552,0-1-0.448-1-1 c0-0.552,0.448-1,1-1s1,0.448,1,1C28,17.552,27.552,18,27,18z"/> </g>
</svg>